# xmcd CD database file
#
# Track frame offsets:
#	150
#	15111
#	24531
#	37024
#	51445
#	64344
#	78005
#	91518
#	103543
#	115768
#	124934
#	138435
#
# Disc length: 2025 seconds
#
# Revision: 0
# Processed by: cddbd v1.4PL0 Copyright (c) Steve Scherf et al.
# Submitted via: CDex 1.50
#
DISCID=8f07e70c
DTITLE=Βοσκόπουλος Τόλης - Τα Ερωτικά
DYEAR=1900
DGENRE=Λαϊκό
TTITLE0=Πριν Χαθεί το Όνειρό Μας
TTITLE1=Συγχωρείστε το Απόψε το Παιδί
TTITLE2=Στοιχηματίζω
TTITLE3=Λυπάμαι
TTITLE4=Δεν Ξέρω
TTITLE5=Θες Δεν Θες
TTITLE6=Και Έλεγες
TTITLE7=Δεν Με Νοιάζει
TTITLE8=Ρώτησε Να Μάθεις
TTITLE9=Σπουδαίοι ’νθρωποι
TTITLE10=Λάθος Δρόμο Πήραμε Καρδιά
TTITLE11=Γενήθηκα Να Δίνω
EXTD=
EXTT0=
EXTT1=
EXTT2=
EXTT3=
EXTT4=
EXTT5=
EXTT6=
EXTT7=
EXTT8=
EXTT9=
EXTT10=
EXTT11=
PLAYORDER=
